<svg xmlns="http://www.w3.org/2000/svg" id="Layer_2" data-name="Layer 2" viewBox="0 0 21.63 21.97"><g id="Layer_1-2" data-name="Layer 1"><path d="M1.14,10.3h4.14c.62,0,1.13-.51,1.13-1.13v-4.14c0-.62-.51-1.13-1.13-1.13H1.14C.52,3.9,0,4.41,0,5.03v4.14c0,.63.51,1.13,1.13,1.13h0ZM.62,5.03c0-.29.23-.52.52-.52h4.14c.29,0,.52.23.52.52v4.14c0,.29-.23.52-.52.52H1.14c-.29,0-.52-.23-.52-.52v-4.14ZM3.21,8.79c.93,0,1.69-.76,1.69-1.69s-.76-1.69-1.69-1.69-1.69.76-1.69,1.69.76,1.69,1.69,1.69ZM3.21,6.03c.59,0,1.07.48,1.07,1.07s-.48,1.07-1.07,1.07-1.07-.48-1.07-1.07.48-1.07,1.07-1.07ZM17.27,14.68h-4.77c-.69,0-1.26.57-1.26,1.26v4.77c0,.69.57,1.26,1.26,1.26h4.77c.69,0,1.26-.57,1.26-1.26v-4.77c0-.69-.57-1.26-1.26-1.26ZM17.92,20.71c0,.36-.29.65-.65.65h-4.77c-.36,0-.65-.29-.65-.65v-4.77c0-.36.29-.65.65-.65h4.77c.36,0,.65.29.65.65v4.77ZM16.49,16.75l-1.34-.77c-.1-.06-.21-.06-.31,0s-.15.16-.15.27v2.41c-.14-.07-.3-.11-.47-.11-.6,0-1.09.49-1.09,1.09s.49,1.09,1.09,1.09,1.09-.49,1.09-1.09c0-.03,0-.07,0-.1,0-.02,0-.04,0-.05v-2.71l.87.51c.15.08.33.04.42-.11s.04-.33-.11-.42h0ZM14.22,20.1c-.26,0-.47-.21-.47-.47s.21-.47.47-.47.47.21.47.47-.21.47-.47.47ZM10.06,14.54H3l6.82-1.83c.08-.02.15-.07.19-.15s.05-.15.03-.23l-.33-1.2c-.16-.6-.77-.95-1.37-.79l-1.88.5-2.57.69-3.07.82c-.29.08-.53.26-.68.52s-.19.56-.11.85l.31,1.16v5.96c0,.62.5,1.12,1.12,1.12h7.77c.62,0,1.12-.5,1.12-1.12v-6c0-.17-.13-.31-.3-.31h0ZM9.75,16.6h-1.86l1-1.45h.86v1.45ZM5.24,16.6l1-1.45h1.91l-1,1.45h-1.91ZM2.58,16.6l1-1.45h1.91l-1,1.45h-1.91ZM.97,16.6v-1.45h1.86l-1,1.45h-.86ZM3.9,12.16l1.34,1.14-1.85.5-1.34-1.14,1.85-.5ZM6.47,11.48l1.34,1.14-1.85.5-1.34-1.14,1.85-.5ZM8.5,10.93s.09-.02.13-.02c.22,0,.43.15.49.37l.24.91-.83.22-1.34-1.14,1.31-.35ZM.69,13.18c.07-.12.18-.2.31-.24l.34-.09,1.34,1.14-1.79.48-.24-.91c-.04-.12-.02-.26.04-.38h0ZM9.25,21.36H1.47c-.28,0-.51-.22-.51-.51v-3.64h8.77v3.64c.01.28-.22.51-.49.51h0ZM6.81,19.08l-2.2-1.27c-.1-.06-.21-.06-.31,0s-.15.16-.15.27v2.54c0,.11.06.21.15.27.05.03.1.04.15.04s.11-.01.15-.04l2.2-1.27c.1-.06.15-.16.15-.27s-.06-.21-.15-.26h0ZM4.77,20.08v-1.47l1.27.73-1.27.74ZM12.01,10.88c-.14.15-.21.35-.21.55,0,.17.06.35.16.49-.11.15-.16.32-.16.49,0,.39.28.8.8.8h.11l.25.38c.2.29.51.46.87.46h1.11c.35,0,.67-.17.87-.46l.25-.38h.11c.51,0,.8-.41.8-.8,0-.17-.06-.35-.16-.49.11-.15.16-.32.16-.49,0-.19-.07-.39-.2-.54.02-.04.05-.07.07-.11.73-1.03,1.54-2.19,1.54-3.55,0-2.21-1.8-4-4-4s-4,1.8-4,4c0,1.35.81,2.5,1.53,3.51.03.05.07.1.1.14h0ZM16.36,11.43c0,.07-.02.18-.18.18h-3.59c-.15,0-.18-.11-.18-.18,0-.07.02-.18.18-.18h3.59c.16,0,.18.11.18.18ZM15.3,13.24c-.08.12-.21.19-.36.19h-1.11c-.15,0-.27-.07-.36-.19l-.02-.04h1.87l-.03.04ZM16.18,12.6h-3.59c-.15,0-.18-.11-.18-.18,0-.07.02-.18.18-.18h3.59c.15,0,.18.11.18.18,0,.07-.03.18-.18.18ZM14.39,3.85c1.87,0,3.39,1.52,3.39,3.39,0,1.16-.73,2.2-1.43,3.2-.05.07-.09.14-.14.2h-3.62c-.06-.08-.11-.16-.17-.25-.69-.98-1.42-2-1.42-3.16,0-1.87,1.52-3.39,3.39-3.39h0ZM9.27,2.56c-.12-.12-.12-.32,0-.44s.32-.12.44,0l1.05,1.05c.12.12.12.32,0,.44-.06.06-.14.09-.22.09s-.16-.03-.22-.09l-1.05-1.05ZM7.15,7.24c0-.17.14-.31.31-.31h1.49c.17,0,.31.14.31.31s-.14.31-.31.31h-1.49c-.17,0-.31-.14-.31-.31ZM14.08,1.79V.31c0-.17.14-.31.31-.31s.31.14.31.31v1.49c0,.17-.14.31-.31.31s-.31-.14-.31-.31ZM21.63,7.24c0,.17-.14.31-.31.31h-1.49c-.17,0-.31-.14-.31-.31s.14-.31.31-.31h1.49c.17,0,.31.14.31.31ZM19.51,2.56l-1.05,1.05c-.06.06-.14.09-.22.09s-.16-.03-.22-.09c-.12-.12-.12-.32,0-.44l1.05-1.05c.12-.12.32-.12.44,0,.12.12.12.31,0,.44ZM13.21,9.71s.1.04.15.04.11-.01.15-.04l2.87-1.66c.1-.06.15-.16.15-.27s-.06-.21-.15-.27l-2.87-1.66c-.1-.06-.21-.06-.31,0s-.15.16-.15.27v3.31c0,.12.06.22.15.27ZM13.67,6.67l1.94,1.12-1.94,1.13v-2.25Z"></path></g></svg>