<svg xmlns="http://www.w3.org/2000/svg" xmlns:xlink="http://www.w3.org/1999/xlink" id="Layer_2" data-name="Layer 2" viewBox="0 0 24 24"><defs><style>      .cls-1 {        fill: none;      }      .cls-2 {        clip-path: url(#clippath);      }    </style><clipPath id="clippath"><rect class="cls-1" width="24" height="24"></rect></clipPath></defs><g id="Layer_1-2" data-name="Layer 1"><g class="cls-2"><g><path d="M11.56,12.53l-3.27,2.69c-.26.22-.1.65.23.65.08,0,.17-.03.23-.08l3.27-2.69c.37-.31-.09-.87-.46-.57Z"></path><path d="M18.68,8.93h1.54c.48,0,.48-.72,0-.72h-1.54c-.46,0-.46.72,0,.72Z"></path><path d="M12.67,18.01c-.36.61.09,1.38.78,1.38.61,0,1.04-.58.89-1.16-.2-.77-1.27-.92-1.67-.22ZM13.37,18.63c-.17-.1-.1-.34.08-.34.32,0,.18.49-.08.34Z"></path><path d="M18.68,11.12h1.54c.48,0,.48-.73,0-.73h-1.54c-.46,0-.46.73,0,.73Z"></path><path d="M6.02,10.25c-.14-.13-.37-.15-.52-.01-.47.44.63.77,0,1.4-.81.81-.22,2.03.25,2.03.09,0,.18-.04.24-.11.48-.44-.61-.75.02-1.4.68-.68.38-1.51.01-1.91Z"></path><path d="M14.93,11.12h1.54c.48,0,.48-.73,0-.73h-1.54c-.46,0-.46.73,0,.73Z"></path><path d="M13.44,14.8c.33,0,.63-.18.79-.45.35-.61-.09-1.39-.79-1.39-1.21,0-1.21,1.84,0,1.84ZM13.44,13.7c.26,0,.23.37,0,.37s-.24-.37,0-.37Z"></path><path d="M11.19,11.12h1.53c.47,0,.47-.73,0-.73h-1.53c-.49,0-.49.73,0,.73Z"></path><path d="M18.68,13.3h1.54c.48,0,.48-.73,0-.73h-1.54c-.46,0-.46.73,0,.73Z"></path><path d="M7.35,15.2c.18,0,.33-.14.36-.32l.82-5.01c.09-.47-.64-.59-.71-.12l-.84,5.02c-.02.22.14.43.37.43Z"></path><path d="M5.79,9.9c.33,0,.63-.18.79-.47.35-.59-.11-1.37-.79-1.37-1.21,0-1.21,1.84,0,1.84ZM5.79,8.8c.31,0,.19.51-.1.34-.16-.1-.08-.34.1-.34Z"></path><path d="M11.19,8.93h1.53c.47,0,.47-.72,0-.72h-1.53c-.49,0-.49.72,0,.72Z"></path><path d="M18.68,15.49h1.54c.48,0,.48-.73,0-.73h-1.54c-.46,0-.46.73,0,.73Z"></path><path d="M14.93,15.49h1.54c.48,0,.48-.73,0-.73h-1.54c-.46,0-.46.73,0,.73Z"></path><path d="M14.93,8.93h1.54c.48,0,.48-.72,0-.72h-1.54c-.46,0-.46.72,0,.72Z"></path><path d="M14.93,13.3h1.54c.48,0,.48-.73,0-.73h-1.54c-.46,0-.46.73,0,.73Z"></path><path d="M20.69,2.3h-2.55v-.45c0-.73-.59-1.32-1.32-1.32s-1.32.59-1.32,1.32v.45h-5.92v-.45c0-.73-.59-1.32-1.32-1.32s-1.31.59-1.31,1.32v.45h-2.58c-.75,0-1.36.62-1.36,1.36,0,1.2.03,9.31-.01,9.37-.22.38-.19.83.01,1.19v1.39c0,.59.39,1.1.91,1.28l-1.25,5.48c-.2.86.26,1.35.83,1.35.23,0,.52-.09.83-.39l5.26-4.88c.59-.47-.01-1.17-.34-1.48h2.36c-.12.42-.42.7-.77.59-.44-.15-.68.53-.23.69.79.28,1.54-.28,1.76-1.28h8.32c.74,0,1.34-.61,1.34-1.36V3.66c0-.74-.6-1.36-1.34-1.36ZM16,1.85c0-.45.37-.82.82-.82s.82.37.82.82v1.97c0,.45-.37.82-.82.82s-.82-.37-.82-.82v-1.97ZM7.45,1.85c0-.45.36-.82.81-.82s.82.36.82.82v1.97c0,.46-.36.82-.82.82s-.81-.37-.81-.82v-1.97ZM4.03,13.16c.07,0,.15.03.22.07.51.29.06,1.06-.45.77-.39-.23-.21-.84.23-.84ZM3.84,22.79c-.36.34-.56.22-.45-.26l1.41-6.18c.82.84,2.57,1.84,3.68,2.13l-4.64,4.31ZM5.07,15.54c.88.07,3.33,1.35,3.97,2.29-1.04-.07-3.42-1.48-3.97-2.29ZM21.31,15.61c0,.34-.28.62-.62.62h-8.08c.37-.57.9.05,1.09-.48.23-.68-1.4-.91-1.9.48h-3.46s-3.28-2.21-3.98-1.13c-.1.15-.22.87-.27,1.07-.2-.11-.35-.31-.35-.56v-.85c.51.12,1.05-.11,1.31-.55.52-.92-.33-1.98-1.31-1.75v-4.99h17.57v8.14ZM21.31,6.74H3.74v-3.08c0-.34.29-.62.63-.62h2.58v.78c0,.73.59,1.32,1.31,1.32s1.32-.59,1.32-1.32v-.78h5.92v.78c0,.73.59,1.32,1.32,1.32s1.32-.59,1.32-1.32v-.78h2.55c.34,0,.62.28.62.62v3.08Z"></path></g></g></g></svg>