<svg xmlns="http://www.w3.org/2000/svg" id="Layer_2" data-name="Layer 2" viewBox="0 0 19.41 23.44"><defs><style>      .cls-1 {        fill-rule: evenodd;      }    </style></defs><g id="Layer_1-2" data-name="Layer 1"><g id="Layer_1-3" data-name="Layer_1"><path class="cls-1" d="M15.07,4.78c-.8,0-1.44-.65-1.44-1.44v-.58h-7.44v.58c0,.8-.65,1.44-1.44,1.44s-1.46-.65-1.46-1.44v-.58h-1.54c-.34,0-.63.27-.63.62v3.08h17.56v-3.08c0-.34-.27-.62-.62-.62h-1.55v.58c0,.8-.65,1.44-1.44,1.44ZM.87,23.44c-.56,0-1.03-.49-.82-1.36l1.25-5.48c-.52-.18-.91-.69-.91-1.28v-1.39c-.21-.36-.23-.81-.01-1.19.04-.05.01-8.17.01-9.37,0-.74.6-1.36,1.36-1.36h1.54v-.58c0-.8.66-1.44,1.46-1.44s1.44.65,1.44,1.44v.58h7.44v-.58c0-.8.65-1.44,1.44-1.44s1.44.65,1.44,1.44v.58h1.55c.74,0,1.35.62,1.35,1.36v11.95c0,.76-.6,1.36-1.35,1.36h-8.32c-.22,1-.96,1.57-1.76,1.28-.45-.15-.21-.84.23-.69.34.11.65-.16.77-.59h-2.36c.33.32.93,1.02.34,1.48l-5.26,4.87c-.32.3-.6.4-.84.4ZM1.46,15.89c.05-.21.18-.92.27-1.07.7-1.08,3.97,1.13,3.98,1.13h3.46c.49-1.39,2.13-1.15,1.9-.48-.19.54-.71-.08-1.08.48h8.07c.34,0,.62-.27.62-.62V7.18H1.12v5c.97-.23,1.83.82,1.3,1.74-.26.44-.8.67-1.3.55v.85c0,.25.15.45.34.56ZM2.18,16.07l-1.41,6.18c-.11.48.1.6.45.26l4.64-4.31c-1.11-.29-2.86-1.29-3.68-2.13ZM2.45,15.26c.55.81,2.92,2.22,3.97,2.29-.65-.95-3.09-2.22-3.97-2.29ZM3.13,13.39c-.47,0-1.06-1.22-.25-2.03.63-.63-.47-.96,0-1.4.15-.14.38-.12.52.01.37.4.67,1.22-.01,1.91-.63.65.47.96-.01,1.4-.07.07-.15.11-.25.11ZM4.73,14.91c-.23,0-.4-.21-.37-.43l.84-5.03c.07-.47.8-.34.71.12l-.82,5.01c-.03.18-.18.32-.36.32ZM5.9,15.59c-.33,0-.49-.43-.23-.65l3.27-2.69c.37-.3.84.26.47.56l-3.27,2.69c-.07.05-.15.08-.23.08ZM10.83,19.1c-.69,0-1.14-.77-.78-1.37.4-.7,1.47-.55,1.68.22.15.58-.29,1.15-.89,1.15ZM10.83,18c-.18,0-.25.25-.08.34.26.15.4-.34.08-.34ZM1.41,12.88c-.44,0-.62.6-.23.84.51.29.96-.48.45-.77-.07-.04-.15-.07-.22-.07ZM3.17,9.61c-1.21,0-1.21-1.84,0-1.84.69,0,1.14.78.8,1.37-.16.29-.47.47-.8.47ZM3.17,8.51c-.18,0-.26.25-.1.34.29.16.41-.34.1-.34ZM10.82,14.52c-1.21,0-1.21-1.84,0-1.84.7,0,1.14.78.8,1.39-.16.27-.47.45-.8.45ZM10.82,13.42c-.23,0-.23.37,0,.37s.26-.37,0-.37ZM4.75.73c-.4,0-.71.33-.71.71v1.9c0,.93,1.43.93,1.43,0v-1.9c0-.38-.33-.71-.71-.71ZM10.1,8.65h-1.54c-.48,0-.48-.73,0-.73h1.54c.47,0,.47.73,0,.73ZM13.85,8.65h-1.54c-.47,0-.47-.73,0-.73h1.54c.48,0,.48.73,0,.73ZM17.6,8.65h-1.54c-.47,0-.47-.73,0-.73h1.54c.48,0,.48.73,0,.73ZM10.1,10.83h-1.54c-.48,0-.48-.73,0-.73h1.54c.47,0,.47.73,0,.73ZM13.85,10.83h-1.54c-.47,0-.47-.73,0-.73h1.54c.48,0,.48.73,0,.73ZM17.6,10.83h-1.54c-.47,0-.47-.73,0-.73h1.54c.48,0,.48.73,0,.73ZM13.85,13.02h-1.54c-.47,0-.47-.73,0-.73h1.54c.48,0,.48.73,0,.73ZM17.6,13.02h-1.54c-.47,0-.47-.73,0-.73h1.54c.48,0,.48.73,0,.73ZM13.85,15.2h-1.54c-.47,0-.47-.73,0-.73h1.54c.48,0,.48.73,0,.73ZM17.6,15.2h-1.54c-.47,0-.47-.73,0-.73h1.54c.48,0,.48.73,0,.73ZM15.07.73c-.4,0-.71.33-.71.71v1.9c0,.93,1.43.93,1.43,0v-1.9c0-.38-.33-.71-.71-.71Z"></path></g></g></svg>