<svg xmlns="http://www.w3.org/2000/svg" id="Layer_2" data-name="Layer 2" viewBox="0 0 20.71 22.67"><defs><style>      .cls-1 {        fill-rule: evenodd;      }    </style></defs><g id="Layer_1-2" data-name="Layer 1"><path class="cls-1" d="M16.88,3.63c0,.19-.15.34-.34.34h-.6c-.19,0-.34-.15-.34-.34s.15-.34.34-.34h.6c.19,0,.34.15.34.34ZM13.48,3.63c0-.19.15-.34.34-.34h.6c.19,0,.34.15.34.34s-.15.34-.34.34h-.6c-.19,0-.34-.15-.34-.34ZM14.79,4.99v-.6c0-.19.15-.34.34-.34s.34.15.34.34v.6c0,.19-.15.34-.34.34s-.34-.15-.34-.34ZM14.79,2.88v-.6c0-.19.15-.34.34-.34s.34.15.34.34v.6c0,.19-.15.34-.34.34s-.34-.15-.34-.34ZM5.7,3.63c0-.19.15-.34.34-.34h.6c.19,0,.34.15.34.34s-.15.34-.34.34h-.6c-.19,0-.34-.15-.34-.34ZM3.93,3.98c-.19,0-.34-.15-.34-.34s.15-.34.34-.34h.6c.19,0,.34.15.34.34s-.15.34-.34.34h-.6ZM4.89,4.99v-.6c0-.19.15-.34.34-.34s.34.15.34.34v.6c0,.19-.15.34-.34.34s-.34-.15-.34-.34ZM4.89,2.88v-.6c0-.19.15-.34.34-.34s.34.15.34.34v.6c0,.19-.15.34-.34.34s-.34-.15-.34-.34ZM19.05,8.46c-.12-.25-.28-.47-.5-.64.22-.17.38-.39.5-.64.12.25.28.47.5.64-.22.17-.38.39-.5.64ZM20.47,7.49l-.28-.08c-.44-.19-.67-.65-.8-1.58-.02-.17-.17-.3-.34-.3s-.32.13-.34.3c-.13.93-.36,1.39-.8,1.58l-.28.08c-.15.04-.24.18-.24.33s.1.28.24.33l.28.08c.44.19.67.65.8,1.58.02.17.17.3.34.3s.32-.13.34-.3c.13-.93.36-1.39.8-1.58l.28-.08c.15-.04.24-.18.24-.33s-.1-.29-.24-.33h0ZM1.67,8.47c-.12-.25-.28-.47-.5-.64.22-.17.38-.39.5-.64.12.25.28.47.5.64-.22.17-.38.39-.5.64ZM3.09,7.5l-.28-.08c-.44-.19-.67-.65-.8-1.58-.02-.17-.17-.3-.34-.3s-.32.13-.34.3c-.13.93-.36,1.39-.8,1.58l-.28.08c-.15.04-.24.18-.24.33s.1.29.24.33l.28.08c.44.19.67.65.8,1.58.02.17.17.3.34.3s.32-.13.34-.3c.13-.93.36-1.39.8-1.58l.28-.08c.15-.04.24-.18.24-.33s-.1-.28-.24-.33ZM10.31,1.65c.12.25.28.47.5.64-.22.17-.38.39-.5.64-.12-.25-.28-.47-.5-.64.22-.17.38-.39.5-.64h0ZM8.89,2.62l.28.08c.44.19.67.65.8,1.58.02.17.17.3.34.3s.32-.13.34-.3c.13-.93.36-1.39.8-1.58l.28-.08c.15-.04.24-.18.24-.33,0-.15-.1-.28-.24-.33l-.28-.08c-.44-.19-.67-.65-.8-1.58-.02-.17-.17-.3-.34-.3s-.32.13-.34.3c-.13.93-.36,1.39-.8,1.58l-.28.08c-.15.04-.24.18-.24.33s.1.29.24.33h0ZM13.35,5.15c.12-.15.34-.17.48-.05.15.12.17.34.05.48-1.17,1.42-1.67,3.13-1.43,4.82.03.19-.1.36-.29.39-.02,0-.03,0-.05,0-.17,0-.31-.12-.34-.29-.28-1.88.28-3.78,1.58-5.35ZM4.01,8.32c-.18-.06-.28-.25-.23-.43.06-.18.25-.28.43-.23.74.23,1.39.68,1.88,1.29.48.61.77,1.34.82,2.12.01.19-.13.35-.32.37,0,0-.02,0-.02,0-.18,0-.33-.14-.34-.32-.09-1.31-.96-2.41-2.22-2.8h0ZM16.86,7.89c-.06-.18-.25-.28-.43-.23-.74.23-1.39.68-1.88,1.29s-.77,1.34-.82,2.12c-.01.19.13.35.32.37,0,0,.02,0,.02,0,.18,0,.33-.14.34-.32.09-1.31.96-2.41,2.22-2.8.18-.06.28-.25.23-.43h0ZM10.64,5.72v6.19c0,.19-.15.34-.34.34s-.34-.15-.34-.34v-6.19c0-.19.15-.34.34-.34s.34.15.34.34ZM6.81,5.1c-.15.12-.17.34-.05.48,1.17,1.42,1.67,3.13,1.43,4.82-.03.19.1.36.29.39.02,0,.03,0,.05,0,.17,0,.31-.12.34-.29.28-1.88-.28-3.78-1.58-5.35-.12-.15-.34-.17-.48-.05ZM12.49,18.17c0,1.14-.92,2.06-2.06,2.06s-2.06-.93-2.06-2.06.92-2.06,2.06-2.06c.54,0,1.04.21,1.4.55l-1.45,1.77-.63-.88c-.11-.15-.33-.19-.48-.08-.15.11-.19.33-.08.48l.9,1.25c.06.09.16.14.27.14h.01c.1,0,.2-.05.27-.13l1.63-1.99c.15.28.23.6.23.94h0ZM13,16.32c.12-.15.1-.36-.05-.48-.15-.12-.36-.1-.48.05l-.2.25c-.49-.44-1.13-.71-1.84-.71-1.52,0-2.75,1.23-2.75,2.75s1.23,2.75,2.75,2.75,2.75-1.23,2.75-2.75c0-.56-.17-1.08-.45-1.51l.28-.34ZM15.88,21.77v-7.59c0-.11-.1-.21-.21-.21h-.88v.67c0,.38-.31.69-.69.69h-.63c-.38,0-.69-.31-.69-.69v-.67h-4.72v.67c0,.38-.31.69-.69.69h-.63c-.38,0-.69-.31-.69-.69v-.67h-.88c-.11,0-.21.1-.21.21v7.59c0,.11.1.21.21.21h10.49c.11,0,.21-.1.21-.21h0ZM6.75,12.63h.63s0,2.02,0,2.02h-.63s0-2.02,0-2.02h0ZM13.47,12.63h.63s0,2.02,0,2.02h-.63s0-2.02,0-2.02h0ZM15.67,13.29h-.88v-.66c0-.38-.31-.69-.69-.69h-.63c-.38,0-.69.31-.69.69v.66h-4.72v-.66c0-.38-.31-.69-.69-.69h-.63c-.38,0-.69.31-.69.69v.66h-.88c-.49,0-.89.4-.89.89v7.59c0,.49.4.89.89.89h10.49c.49,0,.89-.4.89-.89v-7.59c0-.49-.4-.89-.89-.89h0Z"></path></g></svg>