<?xml version="1.0" encoding="UTF-8"?>
<svg id="b" data-name="Layer 2" xmlns="http://www.w3.org/2000/svg" viewBox="0 0 100 100">
  <g id="c" data-name="Layer 1">
    <g>
      <rect width="100" height="100" fill="none"/>
      <path d="M66.23,5.31c-6.34,25.61-10.04,42.55-13.94,69.62-.04.28-.2.54-.43.71-.18.13-.39.2-.62.2-.06,0-.13,0-.19-.02-2.95-.55-5.78-.38-9.18-.09-.57.04-1.08-.39-1.13-.96-1.85-21.06-3.18-34.87-6.98-52.64-.09-.43.09-.87.45-1.11,6.95-4.56,13.96-8.23,23.66-13.31,2.17-1.14,4.42-2.32,6.84-3.59.37-.2.81-.15,1.14.1.33.26.47.68.38,1.08ZM53.01,86.55c-.58-1.72-2.81-3.29-5.3-3.73-2.5-.45-4.76.32-6.21,2.1-1.42,1.76-1.94,3.84-1.48,5.88.46,2.01,1.86,3.77,3.64,4.6.92.43,1.83.61,2.68.61,1.9,0,3.54-.9,4.63-1.99,1.95-1.95,2.82-5.16,2.04-7.46Z" fill="#ffed04"/>
    </g>
  </g>
</svg>