<svg xmlns="http://www.w3.org/2000/svg" id="outline_copy_4" data-name="outline copy 4" viewBox="0 0 22.64 23.32"><path d="M22.22,10.37H1.67l8.32-2.23,7.09-1.9,4.6-1.22c.23-.06.37-.3.31-.53l-1.13-4.17c-.03-.11-.1-.21-.2-.26-.1-.05-.22-.07-.33-.04l-8.76,2.35-7.08,1.9L.32,5.38c-.11.03-.2.1-.26.2-.06.1-.07.22-.04.33l1.11,4.17c.05.16.18.28.34.31-.05,0-.09.01-.14.03-.16.07-.26.22-.26.4v10.35c0,1.19.97,2.16,2.16,2.16h12.42c.24,0,.43-.19.43-.43s-.19-.43-.43-.43H3.24c-.72,0-1.3-.58-1.3-1.3v-5.61h19.86v5.61c0,.72-.58,1.3-1.3,1.3h-3.14c-.24,0-.43.19-.43.43s.19.43.43.43h3.11c1.19,0,2.16-.97,2.16-2.16v-10.36c0-.23-.18-.42-.41-.43h0ZM6.86,14.69l3.45-3.45h6.12l-3.45,3.45h-6.12ZM11.63,3.24l4.23,2.44-5.91,1.58-4.24-2.44,5.91-1.58ZM21.04,4.3l-4,1.07-4.23-2.44,7.34-1.97.89,3.34ZM.96,6.1l3.58-.96,4.23,2.44-6.91,1.86-.9-3.34ZM1.93,11.23h7.16l-3.45,3.45H1.93v-3.45ZM21.79,14.69h-7.59l3.45-3.45h4.14v3.45Z"></path><path d="M6.15,17.71h4.32c.24,0,.43-.19.43-.43s-.19-.43-.43-.43h-4.32c-.24,0-.43.19-.43.43s.19.43.43.43Z"></path><path d="M13.49,19.01c0-.24-.19-.43-.43-.43h-6.91c-.24,0-.43.19-.43.43s.19.43.43.43h6.91c.24,0,.43-.19.43-.43Z"></path><path d="M16.51,18.57h-1.73c-.24,0-.43.19-.43.43s.19.43.43.43h1.73c.24,0,.43-.19.43-.43s-.19-.43-.43-.43Z"></path><path d="M6.15,20.3c-.24,0-.43.19-.43.43s.19.43.43.43h1.73c.24,0,.43-.19.43-.43s-.19-.43-.43-.43h-1.73Z"></path></svg>