<svg xmlns="http://www.w3.org/2000/svg" id="Layer_2" data-name="Layer 2" viewBox="0 0 22.28 22.96"><g id="Layer_1-2" data-name="Layer 1"><g><g><path d="M6.05,17.44h4.25c.23,0,.43-.19.43-.43s-.19-.43-.43-.43h-4.25c-.23,0-.43.19-.43.43s.19.43.43.43Z"></path><path d="M13.28,18.71c0-.23-.19-.43-.43-.43h-6.8c-.23,0-.43.19-.43.43s.19.43.43.43h6.8c.23,0,.43-.19.43-.43Z"></path><path d="M16.25,18.29h-1.7c-.23,0-.43.19-.43.43s.19.43.43.43h1.7c.23,0,.43-.19.43-.43s-.19-.43-.43-.43Z"></path><path d="M6.05,19.99c-.23,0-.43.19-.43.43s.19.43.43.43h1.7c.23,0,.43-.19.43-.43s-.19-.43-.43-.43h-1.7Z"></path></g><path d="M21.87,10.21H1.64l8.2-2.2,6.98-1.87,4.53-1.2c.22-.06.36-.29.3-.52l-1.11-4.11c-.03-.11-.1-.2-.2-.26-.1-.05-.21-.06-.32-.04l-8.62,2.31-6.98,1.87L.31,5.3c-.11.02-.2.09-.26.19-.05.1-.07.21-.04.32l1.1,4.11c.04.16.17.27.33.3-.04.01-.09.02-.13.03-.16.07-.26.22-.26.39v10.2c0,1.17.95,2.12,2.12,2.12h16.99c1.17,0,2.12-.95,2.12-2.12v-10.21c0-.22-.18-.41-.41-.42ZM19.83.94l.88,3.29-3.94,1.05-4.17-2.4,7.23-1.94ZM11.44,3.19l4.17,2.4-5.82,1.56-4.17-2.4,5.82-1.56ZM.94,6.01l3.53-.95,4.16,2.4-6.8,1.83-.89-3.28ZM21.45,11.06v3.4h-7.48l3.4-3.4h4.08ZM16.17,11.06l-3.4,3.4h-6.02l3.4-3.4h6.02ZM1.9,11.06h7.04l-3.4,3.4H1.9v-3.4ZM21.47,20.84c0,.7-.57,1.27-1.28,1.27H3.19c-.71,0-1.28-.57-1.28-1.27v-5.53h19.56v5.53Z"></path></g></g></svg>