<svg xmlns="http://www.w3.org/2000/svg" id="Layer_2" data-name="Layer 2" viewBox="0 0 8.51 23.63"><defs><style>      .cls-1 {        stroke: #000;        stroke-miterlimit: 10;        stroke-width: .25px;      }    </style></defs><g id="Layer_1-2" data-name="Layer 1"><g id="c"><g><path class="cls-1" d="M4.57,18.37s-.03,0-.05,0c-.75-.14-1.47-.1-2.33-.02-.15.01-.28-.1-.29-.24-.47-5.35-.81-8.86-1.77-13.37-.02-.11.02-.22.12-.28,1.77-1.16,3.55-2.09,6.01-3.38.55-.29,1.12-.59,1.74-.91.09-.05.21-.04.29.03s.12.17.1.27c-1.61,6.51-2.55,10.81-3.54,17.68-.01.07-.05.14-.11.18-.05.03-.1.05-.16.05h0ZM3.45,17.74c.3,0,.6.02.9.05.95-6.54,1.86-10.77,3.37-16.89-.42.22-.82.43-1.21.63C4.13,2.79,2.39,3.7.7,4.8c.93,4.38,1.27,7.84,1.72,12.99.36-.03.7-.05,1.04-.05Z"></path><path class="cls-1" d="M3.33,23.5c-.22,0-.44-.05-.68-.16-.45-.21-.8-.66-.92-1.17-.12-.52.01-1.05.37-1.49.37-.45.94-.65,1.58-.53.63.11,1.2.51,1.35.95.2.59-.02,1.4-.52,1.9-.28.28-.7.51-1.18.51h0ZM3.33,20.65c-.25,0-.57.07-.81.37-.33.4-.33.78-.27,1.04.08.35.33.66.63.8.62.29,1.08-.07,1.25-.24.35-.35.52-.95.39-1.34-.07-.22-.45-.51-.93-.59-.07-.01-.16-.02-.25-.02h0Z"></path></g></g></g></svg>