<svg xmlns="http://www.w3.org/2000/svg" id="Layer_2" data-name="Layer 2" viewBox="0 0 8.26 22.45"><defs><style>      .cls-1 {        stroke: #000;        stroke-miterlimit: 10;        stroke-width: .5px;      }    </style></defs><g id="Layer_1-2" data-name="Layer 1"><g id="c"><g><path class="cls-1" d="M4.43,17.39s-.03,0-.05,0c-.7-.13-1.38-.09-2.19-.02-.14.01-.26-.09-.27-.23-.44-5.02-.76-8.32-1.67-12.56-.02-.1.02-.21.11-.26,1.66-1.09,3.33-1.96,5.64-3.18.52-.27,1.05-.55,1.63-.86.09-.05.19-.04.27.02s.11.16.09.26c-1.51,6.11-2.39,10.15-3.33,16.61-.01.07-.05.13-.1.17-.04.03-.09.05-.15.05h0ZM3.37,16.79c.28,0,.56.01.84.05.89-6.14,1.75-10.11,3.16-15.86-.39.21-.77.4-1.14.6-2.23,1.17-3.87,2.02-5.46,3.06.87,4.12,1.19,7.36,1.62,12.2.33-.02.65-.04.97-.04Z"></path><path class="cls-1" d="M3.26,22.2c-.2,0-.42-.04-.64-.15-.42-.2-.76-.62-.87-1.1-.11-.48.01-.98.35-1.4.34-.43.88-.61,1.48-.5.59.11,1.13.48,1.26.89.19.55-.02,1.32-.49,1.78-.26.26-.65.48-1.1.48h0ZM3.26,19.53c-.24,0-.54.07-.76.34-.31.38-.31.74-.25.97.08.33.31.62.59.75.58.27,1.02-.07,1.18-.23.33-.33.49-.89.37-1.26-.07-.2-.43-.48-.88-.56-.07-.01-.15-.02-.24-.02h0Z"></path></g></g></g></svg>